<?xml version="1.0" encoding="UTF-8" standalone="no"?>
<!DOCTYPE svg PUBLIC "-//W3C//DTD SVG 20010904//EN"
              "http://www.w3.org/TR/2001/REC-SVG-20010904/DTD/svg10.dtd">

<svg xmlns="http://www.w3.org/2000/svg"
     width="283.295mm" height="91.2708mm"
     viewBox="0 0 3346 1078">
  <path id="blue"
        fill="#2874f0" stroke="black" stroke-width="0"
        d="M 1833.00,163.38
           C 1821.34,165.02 1816.65,164.73 1805.00,169.45
             1783.78,178.05 1768.16,195.76 1760.23,217.00
             1757.47,224.38 1755.10,234.12 1755.00,242.00
             1755.00,242.00 1755.00,254.00 1755.00,254.00
             1755.04,282.38 1770.97,309.47 1795.00,324.19
             1805.40,330.56 1817.71,334.85 1830.00,335.00
             1846.22,335.19 1854.85,334.86 1870.00,327.68
             1898.20,314.31 1913.89,286.27 1916.09,256.00
             1916.31,252.89 1916.92,251.24 1916.68,248.00
             1915.56,233.12 1914.02,221.65 1907.19,208.00
             1896.66,186.94 1876.99,170.94 1854.00,165.50
             1848.54,164.21 1842.59,163.74 1837.00,163.38
             1837.00,163.38 1833.00,163.38 1833.00,163.38 Z
           M 872.00,165.21
           C 862.30,167.01 855.97,168.32 847.00,172.81
             819.01,186.81 803.05,220.54 803.00,251.00
             803.00,251.00 803.00,280.00 803.00,280.00
             803.05,315.16 822.40,350.93 857.00,362.33
             863.15,364.36 869.50,365.92 876.00,366.00
             898.30,366.26 916.32,364.36 934.00,348.82
             952.07,332.93 962.72,304.87 963.00,281.00
             963.00,281.00 963.00,253.00 963.00,253.00
             962.96,225.11 951.44,194.32 928.00,178.04
             922.47,174.20 916.37,171.15 910.00,169.00
             902.30,166.41 894.12,165.01 886.00,165.21
             886.00,165.21 872.00,165.21 872.00,165.21 Z
           M 1432.00,260.00
           C 1432.00,260.00 1354.00,260.00 1354.00,260.00
             1354.00,260.00 1354.00,291.00 1354.00,291.00
             1354.00,291.00 1397.00,291.00 1397.00,291.00
             1397.00,291.00 1397.00,316.00 1397.00,316.00
             1397.00,318.01 1397.12,321.12 1396.40,322.96
             1394.11,328.88 1383.73,332.05 1378.00,333.19
             1361.36,336.51 1344.96,335.37 1332.29,322.71
             1315.04,305.49 1314.74,279.68 1315.00,257.00
             1315.22,238.73 1319.42,215.24 1335.00,203.76
             1349.07,193.40 1373.05,193.92 1385.82,206.30
             1392.29,212.58 1396.25,224.13 1397.00,233.00
             1397.00,233.00 1433.00,233.00 1433.00,233.00
             1431.60,215.77 1425.25,196.59 1412.83,184.17
             1388.48,159.81 1339.57,158.89 1312.00,178.04
             1290.72,192.82 1279.30,221.56 1279.00,247.00
             1279.00,247.00 1279.00,281.00 1279.00,281.00
             1279.04,305.91 1289.98,332.43 1309.00,348.70
             1314.52,353.42 1320.41,356.72 1327.00,359.69
             1349.91,370.01 1389.24,367.98 1411.00,355.38
             1417.68,351.52 1428.85,343.46 1431.42,336.00
             1432.11,333.97 1432.00,331.16 1432.00,329.00
             1432.00,329.00 1432.00,260.00 1432.00,260.00 Z
           M 1723.00,294.00
           C 1716.86,292.26 1702.07,292.95 1695.00,293.00
             1692.62,293.02 1689.42,292.80 1687.59,294.60
             1685.89,296.27 1685.50,300.63 1684.99,303.00
             1683.97,307.69 1681.84,314.90 1679.47,319.00
             1672.77,330.58 1660.54,334.20 1648.00,334.91
             1628.64,336.00 1614.91,322.17 1608.86,305.00
             1606.17,297.36 1604.10,284.10 1604.00,276.00
             1603.70,250.22 1602.77,217.03 1628.00,201.76
             1644.05,192.04 1669.07,195.35 1679.07,212.00
             1682.12,217.07 1683.82,223.24 1685.00,229.00
             1685.44,231.17 1685.84,235.61 1687.59,236.98
             1689.21,238.24 1692.99,238.00 1695.00,238.00
             1695.00,238.00 1723.00,238.00 1723.00,238.00
             1723.00,238.00 1717.56,211.00 1717.56,211.00
             1713.99,199.21 1704.85,186.08 1695.00,178.76
             1668.58,159.12 1623.34,160.22 1598.00,181.32
             1579.49,196.75 1568.28,223.01 1568.00,247.00
             1568.00,247.00 1568.00,283.00 1568.00,283.00
             1568.03,304.20 1577.12,329.75 1592.04,344.99
             1603.61,356.81 1622.29,365.80 1639.00,366.00
             1639.00,366.00 1653.00,366.00 1653.00,366.00
             1670.80,365.92 1690.68,358.03 1702.91,345.00
             1717.48,329.47 1719.44,313.77 1723.00,294.00 Z
           M 560.00,167.00
           C 560.00,167.00 560.00,363.00 560.00,363.00
             560.00,363.00 595.00,363.00 595.00,363.00
             595.00,363.00 595.00,290.00 595.00,290.00
             595.00,290.00 594.09,278.00 594.09,278.00
             594.09,278.00 591.91,242.00 591.91,242.00
             591.91,242.00 590.00,214.00 590.00,214.00
             590.00,214.00 605.69,257.00 605.69,257.00
             605.69,257.00 631.19,328.00 631.19,328.00
             631.19,328.00 640.19,353.00 640.19,353.00
             641.10,355.39 642.50,360.57 644.51,361.98
             646.29,363.23 649.86,363.00 652.00,363.00
             652.00,363.00 665.00,363.00 665.00,363.00
             671.69,362.88 671.27,361.83 674.58,353.00
             674.58,353.00 683.05,329.00 683.05,329.00
             683.05,329.00 710.69,252.00 710.69,252.00
             710.69,252.00 724.00,213.00 724.00,213.00
             725.41,218.00 723.96,231.33 723.10,237.00
             723.10,237.00 723.10,247.00 723.10,247.00
             723.10,247.00 721.09,268.00 721.09,268.00
             718.94,299.47 720.00,331.42 720.00,363.00
             720.00,363.00 755.00,363.00 755.00,363.00
             755.00,363.00 755.00,167.00 755.00,167.00
             755.00,167.00 713.00,167.00 713.00,167.00
             713.00,167.00 699.00,203.00 699.00,203.00
             699.00,203.00 672.20,270.00 672.20,270.00
             672.20,270.00 658.00,308.00 658.00,308.00
             658.00,308.00 643.00,271.00 643.00,271.00
             643.00,271.00 614.60,200.00 614.60,200.00
             614.60,200.00 605.40,177.00 605.40,177.00
             605.40,177.00 600.59,168.02 600.59,168.02
             600.59,168.02 593.00,167.00 593.00,167.00
             593.00,167.00 560.00,167.00 560.00,167.00 Z
           M 1009.00,167.00
           C 1009.00,167.00 1009.00,363.00 1009.00,363.00
             1009.00,363.00 1068.00,363.00 1068.00,363.00
             1082.71,363.00 1095.86,363.97 1110.00,358.54
             1131.15,350.42 1145.73,332.02 1146.00,309.00
             1146.13,297.45 1145.99,290.79 1140.88,280.00
             1135.48,268.61 1130.85,266.60 1122.00,259.00
             1127.78,257.15 1131.86,250.03 1134.93,245.00
             1147.06,225.18 1141.48,193.77 1123.00,179.53
             1107.08,167.26 1087.01,167.00 1068.00,167.00
             1068.00,167.00 1009.00,167.00 1009.00,167.00 Z
           M 1195.00,167.00
           C 1195.00,167.00 1195.00,363.00 1195.00,363.00
             1195.00,363.00 1230.00,363.00 1230.00,363.00
             1230.00,363.00 1230.00,167.00 1230.00,167.00
             1230.00,167.00 1195.00,167.00 1195.00,167.00 Z
           M 1484.00,167.00
           C 1484.00,167.00 1484.00,363.00 1484.00,363.00
             1484.00,363.00 1519.00,363.00 1519.00,363.00
             1519.00,363.00 1519.00,167.00 1519.00,167.00
             1519.00,167.00 1484.00,167.00 1484.00,167.00 Z
           M 1875.00,296.00
           C 1875.00,296.00 1874.00,282.00 1874.00,282.00
             1873.98,269.70 1873.58,260.60 1865.00,251.00
             1868.28,245.16 1871.56,241.80 1872.92,235.00
             1873.86,230.80 1873.54,228.18 1872.92,224.00
             1867.66,192.15 1826.72,197.00 1803.00,197.00
             1810.08,191.07 1818.89,188.02 1828.00,187.05
             1848.45,184.87 1866.13,191.08 1879.70,207.00
             1895.77,225.84 1898.54,253.52 1889.19,276.00
             1886.06,283.51 1881.57,291.07 1875.00,296.00 Z
           M 883.00,197.71
           C 889.90,198.05 894.45,198.03 901.00,200.88
             918.13,208.31 925.15,227.67 926.96,245.00
             926.96,245.00 926.96,253.00 926.96,253.00
             926.96,253.00 928.00,263.00 928.00,263.00
             928.00,263.00 927.09,279.00 927.09,279.00
             925.59,300.82 920.49,325.33 896.00,332.07
             892.85,332.94 886.26,333.97 883.00,333.97
             863.78,333.97 850.28,322.44 843.46,305.00
             839.99,296.12 838.01,280.58 838.00,271.00
             837.96,245.31 839.17,210.45 868.00,199.88
             873.07,198.02 877.68,197.83 883.00,197.71 Z
           M 1044.00,246.00
           C 1044.00,246.00 1044.00,198.00 1044.00,198.00
             1044.00,198.00 1080.00,198.83 1080.00,198.83
             1085.98,199.43 1089.39,199.13 1095.00,202.36
             1108.77,210.29 1107.30,233.78 1094.00,241.47
             1082.98,247.84 1057.27,246.00 1044.00,246.00 Z
           M 1800.00,200.00
           C 1800.00,200.00 1800.00,299.00 1800.00,299.00
             1792.96,295.64 1787.34,286.81 1783.77,280.00
             1774.20,261.65 1774.45,237.35 1783.77,219.00
             1787.47,211.69 1792.37,203.61 1800.00,200.00 Z
           M 1825.00,238.00
           C 1825.00,238.00 1825.00,221.00 1825.00,221.00
             1829.55,221.00 1841.15,220.98 1844.86,223.17
             1849.18,225.74 1849.89,233.55 1843.95,236.69
             1840.26,238.62 1829.56,238.00 1825.00,238.00 Z
           M 1850.00,299.00
           C 1850.00,299.00 1871.00,299.00 1871.00,299.00
             1856.08,316.62 1814.87,316.51 1800.00,299.00
             1800.00,299.00 1825.00,299.00 1825.00,299.00
             1825.00,299.00 1825.00,262.00 1825.00,262.00
             1830.11,262.00 1841.68,261.39 1845.57,264.73
             1847.89,266.73 1848.54,271.08 1848.93,274.00
             1848.93,274.00 1848.93,289.00 1848.93,289.00
             1848.93,289.00 1850.00,299.00 1850.00,299.00 Z
           M 1044.00,332.00
           C 1044.00,332.00 1044.00,277.00 1044.00,277.00
             1044.00,277.00 1081.00,277.00 1081.00,277.00
             1086.91,277.01 1092.69,277.50 1098.00,280.41
             1113.22,288.75 1113.45,317.37 1098.99,326.53
             1086.51,334.44 1059.17,332.00 1044.00,332.00 Z
           M 0.00,453.00
           C 0.00,453.00 0.00,468.00 0.00,468.00
             0.00,468.00 1894.00,468.00 1894.00,468.00
             1894.00,468.00 2339.00,468.00 2339.00,468.00
             2339.00,468.00 2440.00,468.00 2440.00,468.00
             2440.00,468.00 2465.00,468.00 2465.00,468.00
             2466.96,467.99 2469.83,468.14 2471.49,466.98
             2473.99,465.23 2476.29,456.12 2477.00,453.00
             2477.00,453.00 0.00,453.00 0.00,453.00 Z
           M 2558.00,468.00
           C 2558.00,468.00 3046.00,468.00 3046.00,468.00
             3046.00,468.00 3158.00,468.00 3158.00,468.00
             3158.00,468.00 3185.00,468.00 3185.00,468.00
             3186.96,467.99 3189.83,468.14 3191.49,466.98
             3193.99,465.23 3196.29,456.12 3197.00,453.00
             3197.00,453.00 2709.00,453.00 2709.00,453.00
             2709.00,453.00 2597.00,453.00 2597.00,453.00
             2597.00,453.00 2570.00,453.00 2570.00,453.00
             2568.04,453.01 2565.17,452.86 2563.51,454.02
             2561.01,455.77 2558.71,464.88 2558.00,468.00 Z
           M 0.00,482.00
           C 0.00,482.00 0.00,498.00 0.00,498.00
             0.00,498.00 2463.00,498.00 2463.00,498.00
             2463.00,498.00 2468.00,482.00 2468.00,482.00
             2468.00,482.00 0.00,482.00 0.00,482.00 Z
           M 2548.00,498.00
           C 2548.00,498.00 3037.00,498.00 3037.00,498.00
             3037.00,498.00 3149.00,498.00 3149.00,498.00
             3149.00,498.00 3175.00,498.00 3175.00,498.00
             3176.96,497.99 3179.83,498.14 3181.49,496.98
             3184.20,495.08 3186.48,485.34 3187.00,482.00
             3187.00,482.00 2699.00,482.00 2699.00,482.00
             2699.00,482.00 2588.00,482.00 2588.00,482.00
             2588.00,482.00 2561.00,482.00 2561.00,482.00
             2561.00,482.00 2553.70,482.99 2553.70,482.99
             2553.70,482.99 2548.00,498.00 2548.00,498.00 Z
           M 0.00,512.00
           C 0.00,512.00 0.00,532.00 0.00,532.00
             0.00,532.00 1875.00,532.00 1875.00,532.00
             1875.00,532.00 2317.00,532.00 2317.00,532.00
             2317.00,532.00 2443.00,532.00 2443.00,532.00
             2445.14,532.00 2448.71,532.23 2450.49,530.98
             2453.10,529.15 2456.78,515.67 2458.00,512.00
             2458.00,512.00 0.00,512.00 0.00,512.00 Z
           M 2537.00,532.00
           C 2537.00,532.00 3076.00,532.00 3076.00,532.00
             3076.00,532.00 3034.33,657.00 3034.33,657.00
             3034.33,657.00 3021.33,696.00 3021.33,696.00
             3018.16,705.51 3014.97,712.93 3014.00,723.00
             3014.00,723.00 3099.00,723.00 3099.00,723.00
             3099.00,723.00 3107.16,721.40 3107.16,721.40
             3107.16,721.40 3112.33,708.00 3112.33,708.00
             3112.33,708.00 3123.33,675.00 3123.33,675.00
             3123.33,675.00 3159.33,567.00 3159.33,567.00
             3159.33,567.00 3177.00,512.00 3177.00,512.00
             3177.00,512.00 2688.00,512.00 2688.00,512.00
             2688.00,512.00 2551.00,512.00 2551.00,512.00
             2548.96,512.00 2545.37,511.74 2543.70,512.99
             2541.16,514.89 2537.54,528.49 2537.00,532.00 Z
           M 432.00,890.00
           C 432.00,890.00 410.00,890.00 410.00,890.00
             409.46,896.59 407.59,904.00 402.79,908.86
             394.97,916.76 378.94,915.15 371.32,907.56
             366.40,902.66 365.31,898.44 363.74,892.00
             360.93,880.48 361.03,858.96 365.69,848.00
             369.40,839.27 379.30,832.05 389.00,832.61
             398.00,833.13 404.21,837.78 407.65,846.00
             408.81,848.76 409.50,854.45 411.56,855.98
             413.92,857.73 428.29,857.00 432.00,857.00
             431.95,851.47 430.49,841.96 428.18,837.00
             424.31,828.70 418.17,821.83 410.00,817.54
             395.78,810.08 373.11,811.82 360.00,820.90
             347.91,829.27 340.02,845.42 340.00,860.00
             340.00,860.00 340.00,889.00 340.00,889.00
             340.16,902.04 348.70,917.82 359.01,925.65
             374.88,937.69 404.43,936.69 418.96,922.90
             428.21,914.12 431.89,902.44 432.00,890.00 Z
           M 740.00,813.23
           C 730.83,815.50 722.98,818.25 716.17,825.10
             705.93,835.39 700.17,851.59 700.00,866.00
             699.76,887.19 700.20,906.82 717.09,922.27
             721.39,926.21 726.36,929.64 732.00,931.38
             735.19,932.36 743.64,933.91 747.00,933.99
             751.42,934.09 761.96,932.67 766.00,931.31
             780.00,926.60 790.76,911.91 794.39,898.00
             796.20,891.08 797.01,879.26 797.00,872.00
             796.98,857.05 793.69,839.71 783.58,828.18
             773.46,816.66 760.92,812.83 746.00,813.23
             746.00,813.23 740.00,813.23 740.00,813.23 Z
           M 951.00,813.23
           C 946.16,814.54 940.27,815.89 936.00,818.36
             920.88,827.12 911.03,844.53 911.00,862.00
             911.00,862.00 911.00,885.00 911.00,885.00
             911.05,913.92 936.58,938.70 966.00,933.54
             985.94,930.04 997.33,920.43 1003.67,901.00
             1005.73,894.68 1006.92,890.76 1007.00,884.00
             1007.00,884.00 1007.00,864.00 1007.00,864.00
             1006.92,847.48 998.99,829.51 985.00,820.23
             979.71,816.73 978.88,816.62 973.00,814.99
             965.61,812.94 964.66,812.91 957.00,813.23
             957.00,813.23 951.00,813.23 951.00,813.23 Z
           M 1123.00,870.00
           C 1123.00,870.00 1075.00,870.00 1075.00,870.00
             1075.00,870.00 1075.00,889.00 1075.00,889.00
             1075.00,889.00 1101.00,889.00 1101.00,889.00
             1101.00,893.52 1101.94,905.47 1099.40,908.78
             1097.29,911.52 1093.21,912.38 1090.00,913.11
             1080.44,915.28 1070.22,914.25 1063.09,906.96
             1052.28,895.89 1052.84,880.27 1053.00,866.00
             1053.11,857.29 1056.37,844.18 1063.09,838.27
             1072.05,830.40 1087.87,830.66 1095.70,840.05
             1098.46,843.36 1100.34,850.71 1101.00,855.00
             1101.00,855.00 1123.00,855.00 1123.00,855.00
             1122.99,843.22 1118.24,830.15 1108.96,822.38
             1095.74,811.30 1070.04,810.05 1055.00,817.91
             1039.15,826.20 1031.21,843.74 1031.00,861.00
             1030.89,870.31 1030.38,888.60 1032.37,897.00
             1035.20,908.95 1044.27,921.74 1055.00,927.69
             1069.74,935.85 1091.90,936.03 1107.00,928.78
             1117.07,923.94 1122.98,919.77 1123.00,908.00
             1123.00,908.00 1123.00,870.00 1123.00,870.00 Z
           M 1323.00,892.00
           C 1323.00,892.00 1308.00,892.00 1308.00,892.00
             1306.18,892.01 1303.07,891.85 1301.60,893.02
             1299.76,894.48 1299.95,897.91 1300.18,900.00
             1300.83,905.71 1303.79,912.38 1307.17,916.99
             1315.50,928.33 1331.32,933.84 1345.00,934.00
             1356.91,934.13 1369.70,931.57 1378.91,923.53
             1393.04,911.20 1391.61,888.25 1378.00,876.18
             1369.94,869.05 1358.13,865.17 1348.00,861.89
             1341.78,859.87 1333.89,858.31 1329.57,852.89
             1320.27,841.23 1336.50,831.60 1347.00,832.53
             1360.83,833.75 1364.98,841.38 1366.00,854.00
             1366.00,854.00 1388.00,854.00 1388.00,854.00
             1387.96,841.05 1385.58,830.95 1375.00,822.38
             1357.63,808.31 1325.91,809.58 1311.32,827.00
             1309.35,829.36 1306.72,833.10 1305.68,836.00
             1304.87,838.29 1304.12,843.52 1304.04,846.00
             1303.32,868.55 1322.60,877.11 1341.00,882.72
             1348.99,885.15 1364.30,889.34 1365.76,899.00
             1367.56,910.93 1354.03,914.35 1345.00,913.96
             1330.45,913.33 1323.33,906.65 1323.00,892.00 Z
           M 128.00,814.00
           C 128.00,814.00 129.02,832.40 129.02,832.40
             129.02,832.40 136.00,834.00 136.00,834.00
             136.00,834.00 163.00,834.00 163.00,834.00
             163.00,834.00 163.00,923.00 163.00,923.00
             163.00,923.00 164.02,930.40 164.02,930.40
             164.02,930.40 170.00,932.00 170.00,932.00
             170.00,932.00 185.00,932.00 185.00,932.00
             185.00,932.00 185.00,834.00 185.00,834.00
             185.00,834.00 221.00,834.00 221.00,834.00
             221.00,834.00 221.00,814.00 221.00,814.00
             221.00,814.00 128.00,814.00 128.00,814.00 Z
           M 242.00,814.00
           C 242.00,814.00 242.00,932.00 242.00,932.00
             242.00,932.00 320.00,932.00 320.00,932.00
             320.00,932.00 320.00,913.00 320.00,913.00
             320.00,913.00 264.00,913.00 264.00,913.00
             264.00,913.00 264.00,881.00 264.00,881.00
             264.00,881.00 312.00,881.00 312.00,881.00
             312.00,881.00 312.00,862.00 312.00,862.00
             312.00,862.00 264.00,862.00 264.00,862.00
             264.00,862.00 264.00,834.00 264.00,834.00
             264.00,834.00 312.00,834.00 312.00,834.00
             318.84,833.87 318.96,832.43 319.00,826.00
             319.00,826.00 319.00,814.00 319.00,814.00
             319.00,814.00 242.00,814.00 242.00,814.00 Z
           M 457.00,814.00
           C 457.00,814.00 457.00,932.00 457.00,932.00
             457.00,932.00 480.00,932.00 480.00,932.00
             480.00,932.00 480.00,881.00 480.00,881.00
             480.00,881.00 498.00,882.00 498.00,882.00
             498.00,882.00 527.00,882.00 527.00,882.00
             527.00,882.00 527.00,932.00 527.00,932.00
             527.00,932.00 550.00,932.00 550.00,932.00
             550.00,932.00 550.00,814.00 550.00,814.00
             550.00,814.00 527.00,814.00 527.00,814.00
             527.00,814.00 527.00,861.00 527.00,861.00
             527.00,861.00 480.00,861.00 480.00,861.00
             480.00,861.00 480.00,814.00 480.00,814.00
             480.00,814.00 457.00,814.00 457.00,814.00 Z
           M 580.00,814.00
           C 580.00,814.00 580.00,932.00 580.00,932.00
             580.00,932.00 603.00,932.00 603.00,932.00
             603.00,932.00 603.00,858.00 603.00,858.00
             603.00,858.00 639.28,913.00 639.28,913.00
             639.28,913.00 652.18,930.98 652.18,930.98
             652.18,930.98 660.00,932.00 660.00,932.00
             660.00,932.00 673.00,932.00 673.00,932.00
             673.00,932.00 673.00,814.00 673.00,814.00
             673.00,814.00 651.00,814.00 651.00,814.00
             651.00,814.00 651.00,890.00 651.00,890.00
             651.00,890.00 637.14,869.00 637.14,869.00
             637.14,869.00 613.69,833.00 613.69,833.00
             613.69,833.00 600.62,814.57 600.62,814.57
             600.62,814.57 594.00,814.00 594.00,814.00
             594.00,814.00 580.00,814.00 580.00,814.00 Z
           M 824.00,814.00
           C 824.00,814.00 824.00,932.00 824.00,932.00
             824.00,932.00 898.00,932.00 898.00,932.00
             898.00,932.00 898.00,912.00 898.00,912.00
             898.00,912.00 846.00,912.00 846.00,912.00
             846.00,912.00 846.00,814.00 846.00,814.00
             846.00,814.00 824.00,814.00 824.00,814.00 Z
           M 1153.00,814.00
           C 1153.00,814.00 1153.00,932.00 1153.00,932.00
             1153.00,932.00 1175.00,932.00 1175.00,932.00
             1175.00,932.00 1175.00,814.00 1175.00,814.00
             1175.00,814.00 1153.00,814.00 1153.00,814.00 Z
           M 1206.00,814.00
           C 1206.00,814.00 1206.00,932.00 1206.00,932.00
             1206.00,932.00 1285.00,932.00 1285.00,932.00
             1285.00,932.00 1285.00,919.00 1285.00,919.00
             1284.86,911.51 1282.74,912.01 1276.00,912.00
             1276.00,912.00 1229.00,912.00 1229.00,912.00
             1229.00,912.00 1229.00,882.00 1229.00,882.00
             1229.00,882.00 1276.00,882.00 1276.00,882.00
             1276.00,882.00 1276.00,861.00 1276.00,861.00
             1276.00,861.00 1229.00,861.00 1229.00,861.00
             1229.00,861.00 1229.00,834.00 1229.00,834.00
             1229.00,834.00 1283.00,834.00 1283.00,834.00
             1283.00,834.00 1283.00,814.00 1283.00,814.00
             1283.00,814.00 1206.00,814.00 1206.00,814.00 Z
           M 1463.00,814.00
           C 1463.00,814.00 1463.00,932.00 1463.00,932.00
             1463.00,932.00 1486.00,932.00 1486.00,932.00
             1486.00,923.13 1486.92,895.76 1485.00,889.00
             1497.44,889.00 1520.23,890.53 1531.00,885.10
             1537.40,881.87 1543.52,876.49 1546.74,870.00
             1548.78,865.88 1549.94,859.60 1550.00,855.00
             1550.16,841.57 1548.28,830.99 1536.58,822.46
             1524.66,813.79 1512.06,814.00 1498.00,814.00
             1498.00,814.00 1463.00,814.00 1463.00,814.00 Z
           M 1574.00,814.00
           C 1574.00,814.00 1574.00,932.00 1574.00,932.00
             1574.00,932.00 1597.00,932.00 1597.00,932.00
             1597.00,932.00 1597.00,887.00 1597.00,887.00
             1597.00,887.00 1614.81,888.02 1614.81,888.02
             1614.81,888.02 1623.14,901.00 1623.14,901.00
             1623.14,901.00 1639.00,932.00 1639.00,932.00
             1639.00,932.00 1662.00,932.00 1662.00,932.00
             1661.78,923.15 1658.87,920.36 1654.78,913.00
             1654.78,913.00 1638.00,882.00 1638.00,882.00
             1660.68,872.82 1664.14,835.56 1644.00,821.95
             1641.60,820.33 1636.74,817.65 1634.00,816.79
             1620.35,812.54 1589.50,814.00 1574.00,814.00 Z
           M 1684.00,814.00
           C 1684.00,814.00 1684.00,932.00 1684.00,932.00
             1684.00,932.00 1705.00,932.00 1705.00,932.00
             1705.00,932.00 1705.00,814.00 1705.00,814.00
             1705.00,814.00 1684.00,814.00 1684.00,814.00 Z
           M 1725.00,814.00
           C 1725.00,814.00 1738.38,851.00 1738.38,851.00
             1738.38,851.00 1758.19,905.00 1758.19,905.00
             1758.19,905.00 1764.83,923.00 1764.83,923.00
             1764.83,923.00 1768.70,931.01 1768.70,931.01
             1768.70,931.01 1774.00,932.00 1774.00,932.00
             1774.00,932.00 1786.51,930.98 1786.51,930.98
             1786.51,930.98 1791.12,922.00 1791.12,922.00
             1791.12,922.00 1797.46,904.00 1797.46,904.00
             1797.46,904.00 1817.09,851.00 1817.09,851.00
             1817.09,851.00 1831.00,814.00 1831.00,814.00
             1831.00,814.00 1806.00,814.00 1806.00,814.00
             1806.00,814.00 1796.94,840.00 1796.94,840.00
             1796.94,840.00 1784.64,877.00 1784.64,877.00
             1784.64,877.00 1778.00,897.00 1778.00,897.00
             1778.00,897.00 1769.41,872.00 1769.41,872.00
             1769.41,872.00 1759.65,844.00 1759.65,844.00
             1759.65,844.00 1750.00,814.00 1750.00,814.00
             1750.00,814.00 1725.00,814.00 1725.00,814.00 Z
           M 1831.00,932.00
           C 1831.00,932.00 1847.00,932.00 1847.00,932.00
             1849.42,932.00 1853.14,932.42 1854.86,930.43
             1857.11,927.83 1862.23,906.71 1866.39,904.02
             1868.32,902.78 1871.74,903.00 1874.00,903.00
             1874.00,903.00 1906.00,903.00 1906.00,903.00
             1906.00,903.00 1911.88,922.00 1911.88,922.00
             1911.88,922.00 1916.41,930.98 1916.41,930.98
             1916.41,930.98 1939.00,932.00 1939.00,932.00
             1939.00,932.00 1928.09,903.00 1928.09,903.00
             1928.09,903.00 1913.46,865.00 1913.46,865.00
             1913.46,865.00 1904.60,841.00 1904.60,841.00
             1904.60,841.00 1897.58,823.00 1897.58,823.00
             1897.58,823.00 1893.53,815.02 1893.53,815.02
             1893.53,815.02 1883.00,814.00 1883.00,814.00
             1883.00,814.00 1876.55,815.60 1876.55,815.60
             1876.55,815.60 1871.83,825.00 1871.83,825.00
             1871.83,825.00 1865.54,842.00 1865.54,842.00
             1865.54,842.00 1840.90,906.42 1840.90,906.42
             1840.90,906.42 1831.00,932.00 1831.00,932.00 Z
           M 1938.00,814.00
           C 1938.00,814.00 1938.00,834.00 1938.00,834.00
             1938.00,834.00 1974.00,834.00 1974.00,834.00
             1974.00,834.00 1974.00,932.00 1974.00,932.00
             1974.00,932.00 1996.00,932.00 1996.00,932.00
             1996.00,932.00 1996.00,834.00 1996.00,834.00
             1996.00,834.00 2032.00,834.00 2032.00,834.00
             2032.00,834.00 2032.00,814.00 2032.00,814.00
             2032.00,814.00 1938.00,814.00 1938.00,814.00 Z
           M 2053.00,814.00
           C 2053.00,814.00 2053.00,932.00 2053.00,932.00
             2053.00,932.00 2131.00,932.00 2131.00,932.00
             2131.00,932.00 2131.00,912.00 2131.00,912.00
             2131.00,912.00 2075.00,912.00 2075.00,912.00
             2075.00,912.00 2075.00,881.00 2075.00,881.00
             2081.72,882.91 2105.53,882.01 2114.00,882.00
             2116.26,882.00 2120.62,882.25 2122.43,880.83
             2124.66,879.07 2124.01,872.69 2124.00,870.00
             2124.00,867.70 2124.38,863.59 2122.40,862.02
             2120.51,860.52 2112.66,861.00 2110.00,861.00
             2101.97,861.00 2081.57,860.13 2075.00,862.00
             2075.00,862.00 2075.00,834.00 2075.00,834.00
             2075.00,834.00 2130.00,834.00 2130.00,834.00
             2130.00,834.00 2130.00,814.00 2130.00,814.00
             2130.00,814.00 2053.00,814.00 2053.00,814.00 Z
           M 2205.00,814.00
           C 2205.00,814.00 2205.00,932.00 2205.00,932.00
             2205.00,932.00 2279.00,932.00 2279.00,932.00
             2279.00,932.00 2279.00,912.00 2279.00,912.00
             2279.00,912.00 2246.00,912.00 2246.00,912.00
             2246.00,912.00 2227.00,913.00 2227.00,913.00
             2227.00,913.00 2227.00,814.00 2227.00,814.00
             2227.00,814.00 2205.00,814.00 2205.00,814.00 Z
           M 2301.00,814.00
           C 2301.00,814.00 2301.00,932.00 2301.00,932.00
             2301.00,932.00 2324.00,932.00 2324.00,932.00
             2324.00,932.00 2324.00,814.00 2324.00,814.00
             2324.00,814.00 2301.00,814.00 2301.00,814.00 Z
           M 2356.00,814.00
           C 2356.00,814.00 2356.00,932.00 2356.00,932.00
             2356.00,932.00 2377.00,932.00 2377.00,932.00
             2377.00,932.00 2377.00,876.00 2377.00,876.00
             2377.00,876.00 2375.00,847.00 2375.00,847.00
             2375.00,847.00 2398.37,912.09 2398.37,912.09
             2398.37,912.09 2406.42,930.98 2406.42,930.98
             2406.42,930.98 2414.00,932.00 2414.00,932.00
             2414.00,932.00 2423.00,932.00 2423.00,932.00
             2423.00,932.00 2431.39,908.00 2431.39,908.00
             2431.39,908.00 2443.94,872.00 2443.94,872.00
             2443.94,872.00 2452.00,849.00 2452.00,849.00
             2454.44,857.59 2451.02,880.51 2451.00,891.00
             2451.00,891.00 2451.00,932.00 2451.00,932.00
             2451.00,932.00 2473.00,932.00 2473.00,932.00
             2473.00,932.00 2473.00,814.00 2473.00,814.00
             2473.00,814.00 2456.00,814.00 2456.00,814.00
             2453.73,814.00 2450.34,813.78 2448.39,815.02
             2445.15,817.09 2441.31,828.91 2439.57,833.00
             2439.57,833.00 2426.55,866.00 2426.55,866.00
             2426.55,866.00 2415.00,896.00 2415.00,896.00
             2415.00,896.00 2413.00,896.00 2413.00,896.00
             2413.00,896.00 2403.33,870.00 2403.33,870.00
             2403.33,870.00 2388.50,833.00 2388.50,833.00
             2388.50,833.00 2380.49,815.02 2380.49,815.02
             2380.49,815.02 2373.00,814.00 2373.00,814.00
             2373.00,814.00 2356.00,814.00 2356.00,814.00 Z
           M 2504.00,814.00
           C 2504.00,814.00 2504.00,932.00 2504.00,932.00
             2504.00,932.00 2527.00,932.00 2527.00,932.00
             2527.00,932.00 2527.00,814.00 2527.00,814.00
             2527.00,814.00 2504.00,814.00 2504.00,814.00 Z
           M 2547.00,814.00
           C 2547.00,814.00 2547.00,834.00 2547.00,834.00
             2547.00,834.00 2582.00,834.00 2582.00,834.00
             2582.00,834.00 2582.00,932.00 2582.00,932.00
             2582.00,932.00 2596.00,932.00 2596.00,932.00
             2596.00,932.00 2603.40,930.98 2603.40,930.98
             2603.40,930.98 2605.00,925.00 2605.00,925.00
             2605.00,925.00 2605.00,910.00 2605.00,910.00
             2605.00,910.00 2605.00,860.00 2605.00,860.00
             2605.00,860.00 2604.00,834.00 2604.00,834.00
             2604.00,834.00 2640.00,834.00 2640.00,834.00
             2640.00,834.00 2640.00,814.00 2640.00,814.00
             2640.00,814.00 2547.00,814.00 2547.00,814.00 Z
           M 2661.00,814.00
           C 2661.00,814.00 2661.00,932.00 2661.00,932.00
             2661.00,932.00 2739.00,932.00 2739.00,932.00
             2739.00,932.00 2739.00,912.00 2739.00,912.00
             2739.00,912.00 2684.00,912.00 2684.00,912.00
             2684.00,912.00 2683.00,881.00 2683.00,881.00
             2690.86,882.91 2720.91,882.00 2731.00,882.00
             2731.00,882.00 2731.00,861.00 2731.00,861.00
             2731.00,861.00 2684.00,861.00 2684.00,861.00
             2684.00,861.00 2683.00,834.00 2683.00,834.00
             2683.00,834.00 2738.00,834.00 2738.00,834.00
             2738.00,834.00 2738.00,814.00 2738.00,814.00
             2738.00,814.00 2661.00,814.00 2661.00,814.00 Z
           M 2761.00,814.00
           C 2761.00,814.00 2761.00,932.00 2761.00,932.00
             2761.00,932.00 2801.00,932.00 2801.00,932.00
             2808.34,931.91 2818.72,928.62 2825.00,924.91
             2842.01,914.85 2848.77,896.93 2849.00,878.00
             2849.25,856.49 2847.02,836.92 2828.00,823.30
             2825.10,821.22 2818.39,817.63 2815.00,816.63
             2801.87,812.75 2775.58,814.00 2761.00,814.00 Z
           M 746.00,833.24
           C 746.00,833.24 750.00,833.24 750.00,833.24
             766.18,834.53 773.93,847.95 774.00,863.00
             774.00,863.00 774.00,885.00 774.00,885.00
             773.86,896.32 767.36,910.77 755.00,912.70
             748.18,913.76 738.55,913.12 733.04,908.61
             725.84,902.72 724.78,895.39 723.20,887.00
             720.52,872.78 721.20,846.77 734.00,837.51
             737.37,835.07 741.97,834.06 746.00,833.24 Z
           M 957.00,833.30
           C 976.91,832.26 984.92,849.62 985.00,867.00
             985.04,875.00 985.68,883.22 983.58,891.00
             980.57,902.12 977.28,911.48 964.00,912.83
             957.37,913.51 949.57,913.26 944.09,909.06
             936.63,903.34 934.11,892.87 932.87,884.00
             930.96,870.38 932.23,846.79 944.17,837.85
             947.89,835.06 952.51,834.03 957.00,833.30 Z
           M 1485.00,870.00
           C 1485.00,870.00 1486.00,834.00 1486.00,834.00
             1495.20,834.00 1513.40,832.47 1520.96,837.08
             1529.99,842.60 1530.93,860.26 1521.96,866.16
             1513.86,871.48 1494.86,870.00 1485.00,870.00 Z
           M 1597.00,868.00
           C 1597.00,868.00 1597.00,834.00 1597.00,834.00
             1605.18,834.00 1621.20,832.77 1627.96,836.93
             1636.64,842.27 1636.14,858.74 1627.96,864.28
             1620.83,869.10 1606.80,865.62 1597.00,868.00 Z
           M 2784.00,912.00
           C 2784.00,912.00 2784.00,862.00 2784.00,862.00
             2784.00,862.00 2783.00,834.00 2783.00,834.00
             2792.04,834.00 2806.42,833.00 2813.99,838.39
             2828.00,848.38 2827.17,864.83 2827.00,880.00
             2826.90,888.55 2823.35,899.69 2816.71,905.39
             2806.55,914.13 2796.42,912.00 2784.00,912.00 Z
           M 1886.00,848.00
           C 1886.00,848.00 1898.00,884.00 1898.00,884.00
             1898.00,884.00 1872.00,884.00 1872.00,884.00
             1872.00,884.00 1880.74,860.00 1880.74,860.00
             1880.74,860.00 1886.00,848.00 1886.00,848.00 Z" />
	<path id="yellow"
        fill="#ffca0d" stroke="black" stroke-width="0"
        d="M 3134.00,362.00
           C 3134.00,362.00 3219.00,362.00 3219.00,362.00
             3221.14,362.00 3224.71,362.23 3226.49,360.98
             3229.10,359.15 3232.78,345.67 3234.00,342.00
             3234.00,342.00 3254.67,280.00 3254.67,280.00
             3254.67,280.00 3318.33,89.00 3318.33,89.00
             3318.33,89.00 3337.33,32.00 3337.33,32.00
             3340.61,22.16 3345.91,10.25 3346.00,0.00
             3336.08,0.09 3326.35,4.55 3317.00,7.67
             3317.00,7.67 3269.00,23.67 3269.00,23.67
             3269.00,23.67 3251.00,29.67 3251.00,29.67
             3248.47,30.51 3244.61,31.48 3242.84,33.51
             3241.37,35.19 3240.08,39.75 3239.33,42.00
             3239.33,42.00 3233.33,60.00 3233.33,60.00
             3233.33,60.00 3212.67,122.00 3212.67,122.00
             3212.67,122.00 3158.33,285.00 3158.33,285.00
             3158.33,285.00 3142.00,334.00 3142.00,334.00
             3139.38,341.87 3134.38,354.14 3134.00,362.00 Z
           M 3308.00,38.00
           C 3308.00,38.00 3308.00,39.00 3308.00,39.00
             3308.00,39.00 3307.00,38.00 3307.00,38.00
             3307.00,38.00 3308.00,38.00 3308.00,38.00 Z
           M 3307.00,39.00
           C 3307.00,39.00 3298.33,67.00 3298.33,67.00
             3298.33,67.00 3282.00,116.00 3282.00,116.00
             3282.00,116.00 3231.00,269.00 3231.00,269.00
             3231.00,269.00 3214.00,320.00 3214.00,320.00
             3214.00,320.00 3207.49,335.98 3207.49,335.98
             3207.49,335.98 3200.00,337.00 3200.00,337.00
             3200.00,337.00 3169.00,337.00 3169.00,337.00
             3169.00,337.00 3176.33,313.00 3176.33,313.00
             3176.33,313.00 3190.33,271.00 3190.33,271.00
             3190.33,271.00 3234.00,140.00 3234.00,140.00
             3234.00,140.00 3253.67,81.00 3253.67,81.00
             3253.67,81.00 3263.08,54.42 3263.08,54.42
             3263.08,54.42 3275.00,49.00 3275.00,49.00
             3275.00,49.00 3307.00,39.00 3307.00,39.00 Z
           M 2864.00,362.00
           C 2864.00,362.00 3039.00,362.00 3039.00,362.00
             3041.14,362.00 3044.71,362.23 3046.49,360.98
             3048.93,359.27 3051.90,348.29 3053.00,345.00
             3053.00,345.00 3069.67,295.00 3069.67,295.00
             3069.67,295.00 3121.33,140.00 3121.33,140.00
             3121.33,140.00 3136.67,94.00 3136.67,94.00
             3139.45,85.65 3143.80,75.70 3144.00,67.00
             3136.34,67.17 3130.19,69.94 3123.00,72.33
             3123.00,72.33 3093.00,82.33 3093.00,82.33
             3093.00,82.33 2991.00,116.33 2991.00,116.33
             2991.00,116.33 2954.00,128.67 2954.00,128.67
             2950.39,129.87 2941.52,132.21 2939.20,134.83
             2937.09,137.20 2933.27,150.20 2932.00,154.00
             2932.00,154.00 2918.00,196.00 2918.00,196.00
             2918.00,196.00 2881.00,307.00 2881.00,307.00
             2881.00,307.00 2869.67,341.00 2869.67,341.00
             2867.38,347.85 2864.36,354.73 2864.00,362.00 Z
           M 3129.00,82.00
           C 3129.00,82.00 3129.00,83.00 3129.00,83.00
             3129.00,83.00 3128.00,82.00 3128.00,82.00
             3128.00,82.00 3129.00,82.00 3129.00,82.00 Z
           M 3105.00,106.00
           C 3105.00,106.00 3085.00,167.00 3085.00,167.00
             3085.00,167.00 3046.00,284.00 3046.00,284.00
             3046.00,284.00 3034.00,320.00 3034.00,320.00
             3034.00,320.00 3028.16,335.40 3028.16,335.40
             3028.16,335.40 3020.00,337.00 3020.00,337.00
             3020.00,337.00 2899.00,337.00 2899.00,337.00
             2899.00,337.00 2913.33,292.00 2913.33,292.00
             2913.33,292.00 2942.33,205.00 2942.33,205.00
             2942.33,205.00 2954.00,170.00 2954.00,170.00
             2954.00,170.00 2959.84,154.84 2959.84,154.84
             2959.84,154.84 2972.00,150.00 2972.00,150.00
             2972.00,150.00 3001.00,140.33 3001.00,140.33
             3001.00,140.33 3068.00,118.00 3068.00,118.00
             3068.00,118.00 3105.00,106.00 3105.00,106.00 Z
           M 2594.00,362.00
           C 2594.00,362.00 2769.00,362.00 2769.00,362.00
             2771.56,361.99 2775.23,362.37 2777.16,360.40
             2778.78,358.76 2781.13,350.61 2782.00,348.00
             2782.00,348.00 2791.67,319.00 2791.67,319.00
             2791.67,319.00 2825.33,218.00 2825.33,218.00
             2825.33,218.00 2835.00,189.00 2835.00,189.00
             2837.67,180.98 2839.92,176.63 2840.00,168.00
             2833.05,168.34 2826.54,171.15 2820.00,173.33
             2820.00,173.33 2790.00,183.33 2790.00,183.33
             2790.00,183.33 2689.00,217.00 2689.00,217.00
             2689.00,217.00 2652.00,229.33 2652.00,229.33
             2648.49,230.50 2637.91,233.49 2635.70,235.70
             2633.77,237.63 2632.25,243.26 2631.33,246.00
             2631.33,246.00 2623.67,269.00 2623.67,269.00
             2623.67,269.00 2603.33,330.00 2603.33,330.00
             2600.54,338.38 2594.40,353.89 2594.00,362.00 Z
           M 2801.00,207.00
           C 2801.00,207.00 2790.00,242.00 2790.00,242.00
             2790.00,242.00 2768.00,308.00 2768.00,308.00
             2768.00,308.00 2761.33,328.00 2761.33,328.00
             2761.33,328.00 2757.49,335.98 2757.49,335.98
             2757.49,335.98 2750.00,337.00 2750.00,337.00
             2750.00,337.00 2629.00,337.00 2629.00,337.00
             2629.00,337.00 2635.67,315.00 2635.67,315.00
             2635.67,315.00 2648.00,278.00 2648.00,278.00
             2648.00,278.00 2656.51,255.84 2656.51,255.84
             2656.51,255.84 2670.00,250.67 2670.00,250.67
             2670.00,250.67 2699.00,241.00 2699.00,241.00
             2699.00,241.00 2801.00,207.00 2801.00,207.00 Z
           M 2268.00,357.00
           C 2268.00,357.00 2268.00,362.00 2268.00,362.00
             2268.00,362.00 2499.00,362.00 2499.00,362.00
             2501.14,362.00 2504.71,362.23 2506.49,360.98
             2509.10,359.15 2512.78,345.67 2514.00,342.00
             2514.00,342.00 2529.00,297.00 2529.00,297.00
             2531.94,288.19 2535.91,279.38 2536.00,270.00
             2526.08,270.09 2516.35,274.55 2507.00,277.67
             2507.00,277.67 2458.00,294.00 2458.00,294.00
             2458.00,294.00 2333.00,335.67 2333.00,335.67
             2333.00,335.67 2268.00,357.00 2268.00,357.00 Z
           M 2498.00,308.00
           C 2498.00,308.00 2498.00,309.00 2498.00,309.00
             2498.00,309.00 2497.00,308.00 2497.00,308.00
             2497.00,308.00 2498.00,308.00 2498.00,308.00 Z
           M 2497.00,309.00
           C 2497.00,309.00 2491.33,328.00 2491.33,328.00
             2491.33,328.00 2487.49,335.98 2487.49,335.98
             2487.49,335.98 2480.00,337.00 2480.00,337.00
             2480.00,337.00 2413.00,337.00 2413.00,337.00
             2413.00,337.00 2446.00,325.33 2446.00,325.33
             2446.00,325.33 2497.00,309.00 2497.00,309.00 Z
           M 0.00,548.00
           C 0.00,548.00 0.00,723.00 0.00,723.00
             0.00,723.00 1840.00,723.00 1840.00,723.00
             1840.00,723.00 2381.00,723.00 2381.00,723.00
             2381.00,723.00 2388.30,722.01 2388.30,722.01
             2388.30,722.01 2393.00,711.00 2393.00,711.00
             2393.00,711.00 2402.33,683.00 2402.33,683.00
             2402.33,683.00 2428.33,603.00 2428.33,603.00
             2428.33,603.00 2442.42,560.00 2442.42,560.00
             2442.42,560.00 2446.00,548.00 2446.00,548.00
             2446.00,548.00 0.00,548.00 0.00,548.00 Z
           M 2474.00,723.00
           C 2474.00,723.00 2649.00,723.00 2649.00,723.00
             2649.00,723.00 2656.49,721.98 2656.49,721.98
             2656.49,721.98 2661.33,711.00 2661.33,711.00
             2661.33,711.00 2670.67,683.00 2670.67,683.00
             2670.67,683.00 2700.33,594.00 2700.33,594.00
             2700.33,594.00 2715.00,548.00 2715.00,548.00
             2715.00,548.00 2539.00,548.00 2539.00,548.00
             2536.86,548.00 2533.29,547.77 2531.51,549.02
             2529.29,550.57 2527.57,557.30 2526.67,560.00
             2526.67,560.00 2517.33,588.00 2517.33,588.00
             2517.33,588.00 2488.33,675.00 2488.33,675.00
             2483.71,688.88 2475.34,709.11 2474.00,723.00 Z
           M 2744.00,723.00
           C 2744.00,723.00 2919.00,723.00 2919.00,723.00
             2919.00,723.00 2926.49,721.98 2926.49,721.98
             2926.49,721.98 2931.33,711.00 2931.33,711.00
             2931.33,711.00 2940.67,683.00 2940.67,683.00
             2940.67,683.00 2970.33,594.00 2970.33,594.00
             2970.33,594.00 2985.00,548.00 2985.00,548.00
             2985.00,548.00 2809.00,548.00 2809.00,548.00
             2806.86,548.00 2803.29,547.77 2801.51,549.02
             2799.29,550.57 2797.57,557.30 2796.67,560.00
             2796.67,560.00 2787.33,588.00 2787.33,588.00
             2787.33,588.00 2758.33,675.00 2758.33,675.00
             2753.71,688.88 2745.34,709.11 2744.00,723.00 Z
           M 2984.00,809.00
           C 2984.00,809.00 2984.00,1078.00 2984.00,1078.00
             2984.00,1078.00 2989.00,1078.00 2989.00,1078.00
             2989.00,1078.00 3010.33,1013.00 3010.33,1013.00
             3010.33,1013.00 3052.67,886.00 3052.67,886.00
             3052.67,886.00 3069.00,837.00 3069.00,837.00
             3071.62,829.13 3076.62,816.86 3077.00,809.00
             3077.00,809.00 2984.00,809.00 2984.00,809.00 Z
           M 3042.00,834.00
           C 3042.00,834.00 3033.67,861.00 3033.67,861.00
             3033.67,861.00 3010.00,933.00 3010.00,933.00
             3010.00,933.00 3009.00,902.00 3009.00,902.00
             3009.00,902.00 3009.00,834.00 3009.00,834.00
             3009.00,834.00 3042.00,834.00 3042.00,834.00 Z" />

</svg>
